# xmcd
#
# Track frame offsets:
#	150
#	13790
#	24690
#	36307
#	47328
#	58745
#	69343
#	79710
#	90506
#	103561
#
# Disc length: 1522 seconds
#
# Revision: 1
# Processed by: cddbd v1.5.2PL0 Copyright (c) Steve Scherf et al.
# Submitted via: audiograbber 1.83.01
#
DISCID=7505f00a
DTITLE=George Jones - Seasons Of My Heart
DYEAR=1996
DGENRE=Country
TTITLE0=Seasons Of My Heart
TTITLE1=No Money In This Deal
TTITLE2=Eskimo Pie
TTITLE3=It's Ok
TTITLE4=Long Time To Forget
TTITLE5=I'm Ragged, But I'm Right
TTITLE6=No Used To Cry
TTITLE7=Uh Uh No
TTITLE8=Theme From Danny Boy (Inst.)
TTITLE9=Don't Do This To Me
EXTD=
EXTT0=
EXTT1=
EXTT2=
EXTT3=
EXTT4=
EXTT5=
EXTT6=
EXTT7=
EXTT8=
EXTT9=
PLAYORDER=
